<svg xmlns="http://www.w3.org/2000/svg" width="1400" height="1000" viewBox="0 0 1400 1000">
  <rect width="100%" height="100%" fill="#f4ead6"/>
  <image href="../assets/images/mock-board.svg" x="0" y="0" width="1400" height="1000" preserveAspectRatio="none" opacity=".72"/>
  <text x="24" y="38" font-family="sans-serif" font-weight="bold" font-size="24" fill="#a32323">MOCK: review overlay, not a rules source</text>
  <polygon points="50,50 480,50 480,900 50,900 50,50" fill="hsl(0 70% 55% / .14)" stroke="hsl(0 55% 35%)" stroke-width="4"/>
  <polygon points="480,50 820,50 820,900 480,900 480,50" fill="hsl(115 70% 55% / .14)" stroke="hsl(115 55% 35%)" stroke-width="4"/>
  <polygon points="820,50 1350,50 1350,900 820,900 820,50" fill="hsl(230 70% 55% / .14)" stroke="hsl(230 55% 35%)" stroke-width="4"/>
  <line x1="150" y1="200" x2="450" y2="180" stroke="#263b46" stroke-width="8"/>
  <line x1="450" y1="180" x2="760" y2="250" stroke="#263b46" stroke-width="8"/>
  <line x1="760" y1="250" x2="1100" y2="180" stroke="#263b46" stroke-width="8"/>
  <line x1="450" y1="180" x2="360" y2="650" stroke="#263b46" stroke-width="8"/>
  <line x1="360" y1="650" x2="850" y2="700" stroke="#263b46" stroke-width="8"/>
  <line x1="760" y1="250" x2="850" y2="700" stroke="#263b46" stroke-width="8"/>
  <g><circle cx="150" cy="200" r="18" fill="#fff3cf" stroke="#17252d" stroke-width="4"/><text x="150" y="174" text-anchor="middle" font-family="sans-serif" font-size="20">A</text></g>
  <g><circle cx="450" cy="180" r="18" fill="#fff3cf" stroke="#17252d" stroke-width="4"/><text x="450" y="154" text-anchor="middle" font-family="sans-serif" font-size="20">B</text></g>
  <g><circle cx="760" cy="250" r="18" fill="#fff3cf" stroke="#17252d" stroke-width="4"/><text x="760" y="224" text-anchor="middle" font-family="sans-serif" font-size="20">C</text></g>
  <g><circle cx="1100" cy="180" r="18" fill="#fff3cf" stroke="#17252d" stroke-width="4"/><text x="1100" y="154" text-anchor="middle" font-family="sans-serif" font-size="20">D</text></g>
  <g><circle cx="360" cy="650" r="18" fill="#fff3cf" stroke="#17252d" stroke-width="4"/><text x="360" y="624" text-anchor="middle" font-family="sans-serif" font-size="20">E</text></g>
  <g><circle cx="850" cy="700" r="18" fill="#fff3cf" stroke="#17252d" stroke-width="4"/><text x="850" y="674" text-anchor="middle" font-family="sans-serif" font-size="20">F</text></g>
</svg>
